<svg class="custom-spinner" xmlns="http://www.w3.org/2000/svg" width="50" height="50" viewBox="0 0 39 39"
            fill="none">
            <path
                d="M16.6546 2.67492C17.2862 2.58107 17.9293 2.73876 18.4458 3.11409C18.9623 3.48942 19.3109 4.05242 19.4167 4.68206C19.5225 5.31171 19.377 5.95773 19.0116 6.48124C18.6461 7.00476 18.0898 7.36398 17.4623 7.48167C14.6233 7.96312 12.0465 9.43419 10.1887 11.6341C8.33083 13.834 7.31189 16.6207 7.3125 19.5002C7.3125 22.7325 8.59654 25.8324 10.8821 28.118C13.1677 30.4036 16.2677 31.6877 19.5 31.6877V36.5627C10.0766 36.5627 2.4375 28.9252 2.4375 19.5002C2.4375 11.1395 8.49225 4.04642 16.6546 2.67492Z"
                fill="url(#paint0_linear_10785_9708)" />
            <path
                d="M27.4495 6.98437C27.6633 6.7459 27.9219 6.55189 28.2107 6.41343C28.4995 6.27497 28.8127 6.19476 29.1325 6.17741C29.4522 6.16006 29.7723 6.20589 30.0744 6.31228C30.3764 6.41868 30.6546 6.58356 30.8929 6.7975C32.6787 8.39655 34.1068 10.3546 35.0838 12.5435C36.0608 14.7325 36.5647 17.103 36.5625 19.5001C36.5625 28.9251 28.9234 36.5626 19.5 36.5626V31.6876C21.967 31.6877 24.3759 30.939 26.4084 29.5406C28.4408 28.1423 30.001 26.1601 30.8827 23.856C31.7644 21.5519 31.9261 19.0345 31.3465 16.6366C30.7669 14.2386 29.4731 12.0731 27.6364 10.4261C27.1552 9.99447 26.8653 9.38938 26.8302 8.74395C26.7952 8.09851 27.0179 7.46559 27.4495 6.98437Z"
                fill="url(#paint1_linear_10785_9708)" />
            <defs>
                <linearGradient id="paint0_linear_10785_9708" x1="855.562" y1="181.41" x2="855.562" y2="3115.74"
                    gradientUnits="userSpaceOnUse">
                    <stop stop-color="#82C672" />
                    <stop offset="1" stop-opacity="0.55" />
                </linearGradient>
                <linearGradient id="paint1_linear_10785_9708" x1="872.625" y1="469.299" x2="872.625" y2="2654.56"
                    gradientUnits="userSpaceOnUse">
                    <stop stop-color="#82C672" stop-opacity="0.38" />
                    <stop offset="1" stop-color="#82C672" />
                </linearGradient>
            </defs>
        </svg>