<svg xmlns="http://www.w3.org/2000/svg" width="24" height="24" viewBox="0 0 24 24" fill="none">
  <path d="M7.49969 11.6667C7.49969 11.6667 8.59344 12.9167 10.4164 12.9167C12.2393 12.9167 13.333 11.6667 13.333 11.6667M12.708 7.5H12.7164M8.12469 7.5H8.13302M10.4164 16.6667C14.3284 16.6667 17.4997 13.4953 17.4997 9.58333C17.4997 5.67132 14.3284 2.5 10.4164 2.5C6.50434 2.5 3.33302 5.67132 3.33302 9.58333C3.33302 10.375 3.46289 11.1363 3.7025 11.8472C3.79266 12.1147 3.83775 12.2484 3.84588 12.3512C3.85391 12.4527 3.84784 12.5238 3.82273 12.6225C3.79731 12.7223 3.74118 12.8262 3.62893 13.034L2.26588 15.557C2.07146 15.9168 1.97425 16.0968 1.996 16.2356C2.01495 16.3566 2.08614 16.4631 2.19067 16.5269C2.31067 16.6001 2.5141 16.579 2.92097 16.537L7.18849 16.0958C7.31772 16.0825 7.38234 16.0758 7.44124 16.0781C7.49917 16.0803 7.54006 16.0857 7.59655 16.0987C7.65398 16.112 7.7262 16.1398 7.87065 16.1954C8.66069 16.4998 9.51904 16.6667 10.4164 16.6667ZM13.1247 7.5C13.1247 7.73012 12.9381 7.91667 12.708 7.91667C12.4779 7.91667 12.2914 7.73012 12.2914 7.5C12.2914 7.26988 12.4779 7.08333 12.708 7.08333C12.9381 7.08333 13.1247 7.26988 13.1247 7.5ZM8.54135 7.5C8.54135 7.73012 8.35481 7.91667 8.12469 7.91667C7.89457 7.91667 7.70802 7.73012 7.70802 7.5C7.70802 7.26988 7.89457 7.08333 8.12469 7.08333C8.35481 7.08333 8.54135 7.26988 8.54135 7.5Z" stroke="#EF4444" stroke-width="1.5" stroke-linecap="round" stroke-linejoin="round"/>
</svg>